<svg width="34" height="34" viewBox="0 0 34 34" fill="none" xmlns="http://www.w3.org/2000/svg">
    <circle cx="17" cy="17" r="17" fill="#2B19DD"/>
    <path d="M12 13.5h5M12 17h8m-8 6v2.335c0 .533 0 .8.11.937a.5.5 0 0 0 .39.188c.176 0 .384-.167.8-.5l2.385-1.908c.487-.39.731-.585 1.002-.724.241-.122.497-.212.762-.267.299-.061.61-.061 1.235-.061H21.2c1.68 0 2.52 0 3.162-.327a3 3 0 0 0 1.311-1.311C26 20.72 26 19.88 26 18.2v-5.4c0-1.68 0-2.52-.327-3.162a3 3 0 0 0-1.311-1.311C23.72 8 22.88 8 21.2 8h-8.4c-1.68 0-2.52 0-3.162.327a3 3 0 0 0-1.311 1.311C8 10.28 8 11.12 8 12.8V19c0 .93 0 1.395.102 1.776a3 3 0 0 0 2.121 2.122C10.605 23 11.07 23 12 23z" stroke="#fff" stroke-width="2" stroke-linecap="round" stroke-linejoin="round"/>
</svg>
