<svg width="28" height="28" viewBox="0 0 28 28" fill="none" xmlns="http://www.w3.org/2000/svg">
    <g filter="url(#313mnjsnea)">
        <rect x="1" y="1" width="24" height="24" rx="4" fill="#fff"/>
    </g>
    <g clip-path="url(#evfy3rjwub)">
        <path d="M9.013 17.791c-.283.056-.571.1-.864.133-.294.031-.6.053-.92.066-.322.013-.66.017-1.018.014-.358-.003-.744-.007-1.158-.014-.08 0-.126-.016-.136-.048a.322.322 0 0 1 0-.15l.12-.68c.012-.07.032-.117.06-.141.027-.025.075-.038.143-.038.09.006.18.01.267.01h.261l.625-3.525h-.46c-.126 0-.175-.07-.15-.207l.115-.65c.025-.139.1-.208.225-.208h3.636c.114 0 .16.07.134.207l-.117.66c-.023.133-.092.2-.205.2H9.17l-.611 3.44c.082-.013.166-.024.255-.037l.263-.038c.106-.018.154.019.142.114l-.05.67c-.005.087-.018.143-.04.169-.022.026-.06.044-.113.056l-.003-.003zm-1.556-.849.626-3.525h-.598l-.627 3.535h.303c.1 0 .198-.003.295-.01h.001zM11.63 20.6h-.862c-.063 0-.102-.012-.118-.033-.015-.022-.017-.068-.005-.137l.783-4.412h-.59l-.72 4.064c-.015.082-.033.13-.057.145a.257.257 0 0 1-.127.023h-.802c-.062 0-.104-.007-.124-.023-.02-.015-.024-.064-.01-.145l1.453-8.184c.011-.069.032-.115.058-.136.026-.022.07-.033.133-.033h.802c.062 0 .101.011.117.033.016.021.017.067.006.136l-.542 3.055h.59l.571-3.224c.012-.07.032-.115.058-.137.026-.022.071-.033.133-.033h.854c.063 0 .102.011.12.033.015.021.017.068.005.137l-1.543 8.701c-.012.07-.03.115-.054.137-.023.021-.066.033-.13.033h.002zM20.067 18.998h-7.332c-.074 0-.117-.018-.13-.056a.281.281 0 0 1-.005-.14l.12-.68a.34.34 0 0 1 .057-.151c.026-.032.075-.048.15-.048h7.33c.12 0 .169.067.145.199l-.12.68c-.023.132-.095.198-.214.198l-.001-.002zm-5.993-2.45c-.085.031-.14.04-.168.029-.026-.014-.05-.05-.074-.114l-.216-.66c-.047-.145-.017-.24.093-.284.446-.17.846-.364 1.2-.584.355-.22.667-.468.938-.746.27-.276.501-.584.69-.924.187-.34.34-.72.454-1.14.023-.07.049-.12.078-.152.029-.032.08-.043.16-.037l.801.056c.1.013.158.033.172.062.015.028.009.086-.019.174-.041.175-.09.342-.14.5.025.313.099.606.224.876.126.27.288.515.488.735.2.22.427.413.682.58.255.167.527.3.816.401.07.026.105.056.103.095 0 .038-.024.09-.07.16l-.432.698a.551.551 0 0 0-.058.085c-.016.024-.029.037-.04.037-.027.019-.071.019-.137 0a2.914 2.914 0 0 1-.71-.296 4.323 4.323 0 0 1-.67-.477 3.603 3.603 0 0 1-.986-1.367c-.391.534-.863.995-1.415 1.382-.552.387-1.14.69-1.765.91h.001z" fill="#231F20"/>
        <path d="M3.95 5.8h.82l-.137.771h1.109l-.135.762H4.533l-.269 1.52s-.058.2.17.232h.853l-.13.738h-.855s-1.014.088-.892-.915L3.95 5.8zM17.688 5.8h.821l-.137.771h1.108l-.134.762H18.27l-.269 1.52s-.058.2.17.232h.854l-.132.738h-.854s-1.014.088-.89-.915l.54-3.108zM7.454 6.55c-.93 0-1.818.75-1.983 1.675C5.308 9.15 5.93 9.9 6.86 9.9c.931 0 1.819-.75 1.984-1.675.165-.925-.458-1.675-1.389-1.675zm-.489 2.602c-.505 0-.842-.408-.754-.91.09-.502.57-.91 1.077-.91s.842.408.753.91c-.09.502-.572.91-1.076.91zM21.184 6.528c-.93 0-1.818.75-1.983 1.675-.163.925.457 1.676 1.388 1.676.931 0 1.818-.75 1.983-1.676.164-.925-.457-1.675-1.388-1.675zm-.49 2.602c-.504 0-.841-.407-.753-.91.09-.502.572-.91 1.077-.91s.842.408.752.91c-.09.503-.57.91-1.075.91zM12.195 9.823h.8l.396-2.237c-.01-1.003-.863-1.015-.863-1.015-.743-.066-1.103.341-1.103.341-.265-.385-.834-.364-.834-.364-1.185.055-1.417 1.114-1.417 1.114l-.385 2.172h.82l.376-2.117s.097-.419.54-.419c0 0 .359-.022.334.43l-.373 2.106h.809l.373-2.106s.106-.408.542-.43c0 0 .387 0 .338.463l-.354 2.061.001.001zM16.927 8.215c.164-.926-.457-1.677-1.388-1.677-.93 0-1.818.75-1.983 1.677-.164.925.457 1.675 1.388 1.675.339 0 .671-.1.965-.27l-.034.21.767-.006.284-1.6.001-.01zm-1.877.925c-.506 0-.843-.407-.755-.91.09-.502.57-.909 1.076-.909.505 0 .842.407.753.91-.09.502-.57.909-1.076.909h.002z" fill="#C9252C"/>
    </g>
    <defs>
        <clipPath id="evfy3rjwub">
            <path fill="#fff" d="M3.4 5.8h19.2v14.8H3.4z"/>
        </clipPath>
        <filter id="313mnjsnea" x="0" y="0" width="28" height="28" filterUnits="userSpaceOnUse" color-interpolation-filters="sRGB">
            <feFlood flood-opacity="0" result="BackgroundImageFix"/>
            <feColorMatrix in="SourceAlpha" values="0 0 0 0 0 0 0 0 0 0 0 0 0 0 0 0 0 0 127 0" result="hardAlpha"/>
            <feOffset dx="1" dy="1"/>
            <feGaussianBlur stdDeviation="1"/>
            <feComposite in2="hardAlpha" operator="out"/>
            <feColorMatrix values="0 0 0 0 0 0 0 0 0 0 0 0 0 0 0 0 0 0 0.06 0"/>
            <feBlend in2="BackgroundImageFix" result="effect1_dropShadow_1332_363"/>
            <feBlend in="SourceGraphic" in2="effect1_dropShadow_1332_363" result="shape"/>
        </filter>
    </defs>
</svg>
