<svg width="24" height="24" viewBox="0 0 24 24" fill="none" xmlns="http://www.w3.org/2000/svg">
    <path d="m23.802 14.508-2.982-3.083a5.678 5.678 0 0 0 1.145-3.442 5.77 5.77 0 0 0-.914-3.123 5.461 5.461 0 0 0-2.433-2.07 5.247 5.247 0 0 0-3.133-.319 5.369 5.369 0 0 0-2.776 1.538 5.69 5.69 0 0 0-1.484 2.878 5.809 5.809 0 0 0 .308 3.246 5.58 5.58 0 0 0 1.997 2.522c.892.618 1.94.947 3.012.947a5.234 5.234 0 0 0 3.32-1.187l2.976 3.09a.67.67 0 0 0 .481.208.67.67 0 0 0 .482-.207.72.72 0 0 0 .199-.499.72.72 0 0 0-.198-.498zm-10.133-3.512a4.277 4.277 0 0 1-1.2-2.556 4.333 4.333 0 0 1 .639-2.763 4.085 4.085 0 0 1 2.186-1.716 3.935 3.935 0 0 1 2.739.112 4.121 4.121 0 0 1 2.048 1.89 4.35 4.35 0 0 1 .426 2.807 4.244 4.244 0 0 1-1.39 2.45 3.984 3.984 0 0 1-2.574.978 3.997 3.997 0 0 1-2.874-1.237v.036-.001zM7.863 13.344c-.245 0-.48.1-.653.28a.978.978 0 0 0 0 1.353.91.91 0 0 0 .653.281h5.54c.245 0 .48-.1.653-.28a.978.978 0 0 0 0-1.354.91.91 0 0 0-.653-.28h-5.54z" fill="#222221"/>
    <path d="M18.871 12.868a.83.83 0 0 1 .073.331v.144h-1.847c-.245 0-.48.1-.653.28a.978.978 0 0 0 0 1.354.91.91 0 0 0 .653.28h1.847v.143a.826.826 0 0 1-.23.576.773.773 0 0 1-.555.238H3.107a.773.773 0 0 1-.555-.238.83.83 0 0 1-.23-.576v-.143h1.847c.245 0 .48-.1.653-.28a.974.974 0 0 0 .27-.677.972.972 0 0 0-.27-.677.906.906 0 0 0-.653-.28H2.322v-.144a.83.83 0 0 1 .23-.575.773.773 0 0 1 .555-.239h10.728a4.329 4.329 0 0 1-1.54-1.914H4.88L6.265 8.07a.945.945 0 0 1 .337-.344.897.897 0 0 1 .457-.125h4.863a5.235 5.235 0 0 1 .624-1.915H7.06c-.478 0-.948.13-1.364.376a2.828 2.828 0 0 0-1.01 1.022L2.702 10.47a2.608 2.608 0 0 0-1.604.934A2.79 2.79 0 0 0 .475 13.2V15.4c0 .393.083.78.243 1.135.16.355.391.67.68.923v.67c0 .762.292 1.493.812 2.03.52.54 1.225.842 1.959.842a2.72 2.72 0 0 0 1.958-.841c.52-.54.812-1.27.812-2.03h7.388c0 .761.292 1.492.812 2.03.52.539 1.224.84 1.958.84a2.72 2.72 0 0 0 1.959-.84 2.93 2.93 0 0 0 .811-2.03v-.67c.29-.253.521-.57.681-.924.16-.355.242-.743.243-1.135v-2.2a2.796 2.796 0 0 0-.465-1.564c-.376.508-.86.935-1.455 1.232zm-14.05 5.938a.906.906 0 0 1-.652.28c-.245 0-.48-.1-.653-.28a.978.978 0 0 1-.27-.677h1.846a.972.972 0 0 1-.27.677zm12.929 0a.906.906 0 0 1-.653.28c-.245 0-.48-.1-.653-.28a.978.978 0 0 1-.27-.677h1.847a.973.973 0 0 1-.271.677z" fill="#222221"/>
</svg>
